<svg xmlns="http://www.w3.org/2000/svg" viewBox="0 0 130 130"><defs><style>.cls-1{fill:#fc5854;}</style></defs><title>close_default</title><g id="Layer_2" data-name="Layer 2"><g id="Layer_1-2" data-name="Layer 1"><path class="cls-1" d="M65,129.5A64.5,64.5,0,0,1,19.39,19.39a64.5,64.5,0,0,1,91.22,91.22A64.08,64.08,0,0,1,65,129.5Z"/><path class="cls-1" d="M65,1a64,64,0,0,1,45.25,109.25,64,64,0,1,1-90.5-90.5A63.56,63.56,0,0,1,65,1m0-1A65,65,0,0,0,19,111,65,65,0,1,0,111,19,64.55,64.55,0,0,0,65,0Z"/></g></g></svg>